<?xml version="1.0" encoding="iso-8859-1"?>
<!-- Generator: Adobe Illustrator 19.0.0, SVG Export Plug-In . SVG Version: 6.00 Build 0)  -->
<svg version="1.1" id="Capa_1" xmlns="http://www.w3.org/2000/svg" xmlns:xlink="http://www.w3.org/1999/xlink" x="0px" y="0px"
	 viewBox="0 0 382 382" style="enable-background:new 0 0 382 382;" xml:space="preserve">
<g id="XMLID_37_">
	<path id="XMLID_239_" d="M266.776,294.862c1.92-1.316,3.796-2.68,5.615-4.097c25.105-19.548,38.932-46.95,38.932-77.159
		c0-42.781-13.7-63.639-34.438-95.21c-14.869-22.638-33.375-50.812-55.311-98.854L212.652,0L197.38,15.111
		c-2.255,2.23-42.7,42.961-52.856,100.433L119.65,74.215l-12.903,21.066c-1.73,2.824-42.285,69.846-35.25,128.937
		c3.087,25.938,16.973,49.48,39.099,66.293c1.828,1.389,3.717,2.706,5.634,3.989C98.65,300.627,85.996,317.359,85.996,337
		c0,24.813,20.187,45,45,45c11.517,0,22.032-4.354,30-11.495c7.968,7.142,18.483,11.495,30,11.495s22.032-4.354,30-11.495
		c7.968,7.142,18.483,11.495,30,11.495c24.814,0,45-20.187,45-45C295.996,317.737,283.827,301.268,266.776,294.862z M250.996,352
		c-8.271,0-15-6.729-15-15c0-8.271,6.729-15,15-15c8.272,0,15,6.729,15,15C265.996,345.271,259.268,352,250.996,352z M115.996,337
		c0-8.271,6.729-15,15-15s15,6.729,15,15c0,8.271-6.729,15-15,15S115.996,345.271,115.996,337z M175.996,272
		c0-12.829,8.301-23.705,14.998-30.392c6.708,6.696,15.002,17.568,15.002,30.392c0,8.271-6.729,15-15,15
		C182.725,287,175.996,280.271,175.996,272z M175.996,337c0-8.271,6.729-15,15-15c8.271,0,15,6.729,15,15c0,8.271-6.729,15-15,15
		C182.725,352,175.996,345.271,175.996,337z M101.286,220.673c-3.584-30.103,8.999-64.71,19.209-86.877l19.985,33.204h34.759
		c-11.271-47.698,12.663-90.797,29.223-113.566c18.643,37.73,34.942,62.544,47.35,81.434c19.649,29.914,29.512,44.93,29.512,78.74
		c0,31.473-21.184,53.277-45.756,64.527c0.275-2.007,0.43-4.053,0.43-6.135c0-37.596-35.182-61.482-36.68-62.481l-8.32-5.547
		l-8.32,5.547c-1.498,0.999-36.68,24.885-36.68,62.481c0,1.683,0.101,3.341,0.281,4.977c-6.347-2.863-12.22-6.314-17.533-10.351
		C113.154,254.779,103.403,238.46,101.286,220.673z"/>
</g>
<g>
</g>
<g>
</g>
<g>
</g>
<g>
</g>
<g>
</g>
<g>
</g>
<g>
</g>
<g>
</g>
<g>
</g>
<g>
</g>
<g>
</g>
<g>
</g>
<g>
</g>
<g>
</g>
<g>
</g>
</svg>
