<?xml version="1.0" encoding="UTF-8"?><svg id="b" xmlns="http://www.w3.org/2000/svg" viewBox="0 0 410.22 86.29"><g id="c"><g><g><path d="M45.67,57.61c-15.88,0-28.8-12.92-28.8-28.8S29.79,0,45.67,0s28.8,12.92,28.8,28.8-12.92,28.8-28.8,28.8Zm0-54.61c-14.23,0-25.8,11.58-25.8,25.8s11.58,25.8,25.8,25.8,25.8-11.58,25.8-25.8S59.9,3,45.67,3Z"/><path d="M45.67,75.51c-15.88,0-28.8-12.92-28.8-28.8s12.92-28.8,28.8-28.8,28.8,12.92,28.8,28.8-12.92,28.8-28.8,28.8Zm0-54.61c-14.23,0-25.8,11.58-25.8,25.8s11.58,25.8,25.8,25.8,25.8-11.58,25.8-25.8-11.58-25.8-25.8-25.8Z"/><path d="M63.22,86.29c-15.88,0-28.8-12.92-28.8-28.8s12.92-28.8,28.8-28.8,28.8,12.92,28.8,28.8-12.92,28.8-28.8,28.8Zm0-54.61c-14.23,0-25.8,11.58-25.8,25.8s11.58,25.8,25.8,25.8,25.8-11.58,25.8-25.8-11.58-25.8-25.8-25.8Z"/><path d="M28.8,86.29c-15.88,0-28.8-12.92-28.8-28.8S12.92,28.68,28.8,28.68s28.8,12.92,28.8,28.8-12.92,28.8-28.8,28.8Zm0-54.61c-14.23,0-25.8,11.58-25.8,25.8s11.58,25.8,25.8,25.8,25.8-11.58,25.8-25.8-11.58-25.8-25.8-25.8Z"/></g><g><path d="M151.56,72.88h-43.92v-1.56c4.68-.72,7.32-1.56,8.52-3.12,1.56-1.8,1.68-5.04,1.8-8.4,.12-4.08,.12-11.16,.12-14.88s0-8.04-.12-12.12c-.12-3.72-.24-7.44-2.64-9.24-1.44-1.2-4.2-1.92-7.68-2.4v-1.56s9.12,.12,15.24,.12h20.88c4.56,0,5.52-.6,6.12-1.56h1.2l-.24,15.36h-1.56c-.24-1.32-.48-5.52-3-7.68-1.92-1.68-5.04-2.4-9-2.64-1.8-.12-5.16-.12-9.24-.12-.12,8.64-.24,21-.24,21,0,0,5.16,0,8.16-.12,2.4-.12,4.68-.24,5.76-.96,1.2-.84,1.92-3.96,2.4-6h1.44v19.08h-1.44c-.24-1.8-.72-5.64-2.52-7.08-.84-.84-2.88-1.32-6.24-1.32h-7.56s0,8.4,.12,10.56c.12,3.48,0,6.72,1.08,8.64,1.2,2.04,3.24,2.88,7.92,2.88,3.84,0,8.28-1.2,11.16-3.84,3.36-3.12,4.92-6.84,6.36-11.4l1.44,.24s-1.8,11.16-4.32,18.12Z"/><path d="M196.67,72.44h-37.24v-1.28s6.29-.39,8.06-2.56c1.08-1.28,1.57-3.05,1.67-6.98,.1-3.34,.1-8.94,.1-12.09,0-3.44,0-7.37-.1-9.93-.1-3.44-.1-6.29-2.75-7.96-1.47-.88-5.7-1.57-5.7-1.57v-1.28h25.55v1.28s-5.01,.49-6.58,1.77c-2.06,1.67-2.06,4.13-2.26,7.96-.2,3.44-.2,6.29-.2,9.73,0,5.11,0,17.69,.79,18.47,1.18,.88,2.95,1.77,7.86,1.77,3.14,0,6.09-.88,8.25-3.14,1.87-1.87,4.23-6.09,5.5-10.32l1.18,.39s-1.97,9.92-4.13,15.72Z"/><path d="M225.46,72.84c-3.54,0-8.55-.49-12.77-.49-6.68,0-12.28,.1-12.28,.1v-1.28s4.62-.49,6.39-1.57c1.87-1.18,2.06-3.14,2.46-6.88,.29-2.95,.39-8.84,.39-12.87,0-3.34-.1-8.65-.29-11.5-.29-5.6-1.47-6.09-2.26-6.58-2.26-1.38-6.29-1.67-6.29-1.67v-1.28s12.48-.1,21.42-.1c14.94,0,29.58,6.29,29.58,21.62,0,12.28-10.61,22.5-26.34,22.5Zm7.96-37.73c-5.4-3.73-9.53-4.03-15.62-4.03,0,0-.29,12.68-.29,18.47s.1,11.69,.2,15.13c.2,5.5,5.5,5.99,7.96,5.99,4.32,0,8.55-1.67,11.1-3.93,4.62-4.23,5.6-9.83,5.6-15.53,0-6.29-3.44-12.28-8.94-16.12Z"/><path d="M292.97,72.44h-35.97v-1.28c3.83-.59,5.99-1.28,6.98-2.56,1.28-1.47,1.38-4.13,1.47-6.88,.1-3.34,.1-9.14,.1-12.19s0-6.58-.1-9.93c-.1-3.05-.2-6.09-2.16-7.57-1.18-.98-3.44-1.57-6.29-1.97v-1.28s7.47,.1,12.48,.1h17.1c3.73,0,4.52-.49,5.01-1.28h.98l-.2,12.58h-1.28c-.2-1.08-.39-4.52-2.46-6.29-1.57-1.38-4.13-1.97-7.37-2.16-1.47-.1-4.23-.1-7.57-.1-.1,7.08-.2,17.2-.2,17.2,0,0,4.23,0,6.68-.1,1.97-.1,3.83-.2,4.72-.79,.98-.69,1.57-3.24,1.96-4.91h1.18v15.62h-1.18c-.2-1.47-.59-4.62-2.06-5.8-.69-.69-2.36-1.08-5.11-1.08h-6.19s0,6.88,.1,8.65c.1,2.85,0,5.5,.88,7.08,.98,1.67,2.65,2.36,6.49,2.36,3.15,0,6.78-.98,9.14-3.14,2.75-2.56,4.03-5.6,5.21-9.34l1.18,.2s-1.47,9.14-3.54,14.84Z"/><path d="M350.46,31.27c-1.97,.98-2.75,1.97-2.95,8.65-.2,5.5-.2,14.54-.2,26.24,0,1.57,.2,7.08,.2,7.08l-2.46,.29s-23.19-24.57-32.23-34.29l-.2,.1s0,14.15,.1,19.85c.1,6.98,.39,9.53,2.26,10.42,2.75,1.28,6.29,1.57,6.29,1.57v1.28h-20.83v-1.28s3.83-.39,5.9-1.47c1.97-.98,2.46-3.44,2.65-9.14,.2-5.21,.49-24.67,.49-24.67-4.42-5.21-6.78-5.21-10.32-5.8v-1.28h21.72v1.28s-3.54,.1-3.83,1.97c10.81,12.09,27.12,28.6,27.12,28.6,0,0-.1-12.97-.59-20.93-.39-5.8-.98-7.37-2.85-8.25-2.36-1.08-5.6-1.38-5.6-1.38v-1.28h20.44v1.28s-2.95,.1-5.11,1.18Z"/><path d="M388.62,73.12c-4.08,0-9.12-.24-13.8-.24h-16.08v-1.56s5.16-.36,7.8-1.92c1.56-.96,2.64-2.88,3-7.8,.48-7.08,.36-11.16,.36-15.84,0-3-.12-11.88-.24-14.88-.24-5.76-1.68-6.96-2.64-7.68-1.8-1.32-7.56-2.04-7.56-2.04v-1.56s16.44-.12,25.92-.12c14.88,0,20.76,5.16,20.76,11.64,0,9.12-10.92,12-12.84,12.6v.24c9.12,.96,16.92,5.28,16.92,13.92,0,9.96-10.44,15.24-21.6,15.24Zm-6.12-26.76v-1.92c7.92-.36,12.96-3.72,12.96-10.68,0-11.16-10.68-11.52-15.36-11.52,0,0-.48,8.64-.48,23.16,0,7.92-.12,13.44,.24,17.76,.48,5.04,3.84,7.32,8.4,7.32,3.72,0,10.8-1.2,10.8-11.88,0-8.4-7.32-12.24-16.56-12.24Z" /></g></g></g></svg>
