<?xml version="1.0" encoding="UTF-8"?><svg id="b" xmlns="http://www.w3.org/2000/svg" viewBox="0 0 92.03 86.29"><g id="c"><g><path d="M45.67,57.61c-15.88,0-28.8-12.92-28.8-28.8S29.79,0,45.67,0s28.8,12.92,28.8,28.8-12.92,28.8-28.8,28.8Zm0-54.61c-14.23,0-25.8,11.58-25.8,25.8s11.58,25.8,25.8,25.8,25.8-11.58,25.8-25.8S59.9,3,45.67,3Z"/><path d="M45.67,75.51c-15.88,0-28.8-12.92-28.8-28.8s12.92-28.8,28.8-28.8,28.8,12.92,28.8,28.8-12.92,28.8-28.8,28.8Zm0-54.61c-14.23,0-25.8,11.58-25.8,25.8s11.58,25.8,25.8,25.8,25.8-11.58,25.8-25.8-11.58-25.8-25.8-25.8Z"/><path d="M63.22,86.29c-15.88,0-28.8-12.92-28.8-28.8s12.92-28.8,28.8-28.8,28.8,12.92,28.8,28.8-12.92,28.8-28.8,28.8Zm0-54.61c-14.23,0-25.8,11.58-25.8,25.8s11.58,25.8,25.8,25.8,25.8-11.58,25.8-25.8-11.58-25.8-25.8-25.8Z"/><path d="M28.8,86.29c-15.88,0-28.8-12.92-28.8-28.8S12.92,28.68,28.8,28.68s28.8,12.92,28.8,28.8-12.92,28.8-28.8,28.8Zm0-54.61c-14.23,0-25.8,11.58-25.8,25.8s11.58,25.8,25.8,25.8,25.8-11.58,25.8-25.8-11.58-25.8-25.8-25.8Z"/></g></g></svg>